# xmcd
#
# Track frame offsets:
#	150
#	14307
#	27108
#	40451
#	59242
#	85446
#	108871
#	132337
#	150512
#	163147
#	177918
#	192084
#	212946
#	247286
#
# Disc length: 3588 seconds
#
# Revision: 1
# Processed by: cddbd v1.5.1PL0 Copyright (c) Steve Scherf et al.
# Submitted via: audiograbber 1.83.01
#
DISCID=c80e020e
DTITLE=Steve Arvey - Chicago Roots
DYEAR=2003
DGENRE=Blues
TTITLE0=Cold Wind From Chicago
TTITLE1=Movin' Down The Line
TTITLE2=Mardi Gras
TTITLE3=Rootin' In Bruthen
TTITLE4=Five Triple Y (5YYY)
TTITLE5=Blues Messiah
TTITLE6=It's A Fine Line
TTITLE7=Coming Back To You
TTITLE8=Pestigo River Blues
TTITLE9=44 Blues
TTITLE10=Mississippi Heavy Water Blues
TTITLE11=Set A Date
TTITLE12=Chains
TTITLE13=Canned Heat
EXTD=Publisher: On Core Records
EXTT0=written by Arvey/Vilardo/Wagner/Kruse
EXTT1=written by Steve Arvey
EXTT2=written by Steve Arvey
EXTT3=written by Steve Arvey/John Ward
EXTT4=written by Steve Arvey
EXTT5=written by Scott/Arvey
EXTT6=written by Steve Arvey
EXTT7=written by Kraig Kenning
EXTT8=written by Steve Arvey
EXTT9=written by Chester Burnette
EXTT10=written by Barbecue Bob
EXTT11=written by Homesick James
EXTT12=written by Arvey/Hoekstra/Baker/Weidrich
EXTT13=written by Tommy Johnson
PLAYORDER=
